<svg width="47" height="47" viewBox="0 0 47 47" fill="none" xmlns="http://www.w3.org/2000/svg">
<circle cx="23.5" cy="23.5" r="23.5" fill="#FB6210"/>
<path d="M31.7929 33.9167L31.7929 34.4717H31.7929L31.7929 33.9167ZM31.7929 29.6667L31.7929 30.2217H31.7929L31.7929 29.6667ZM16.2096 29.6667L16.2096 29.1117H16.2096L16.2096 29.6667ZM16.2096 33.9167L16.2096 33.3617H16.2096L16.2096 33.9167ZM16.0667 29.6667L15.5201 29.7624C15.5665 30.0279 15.7971 30.2217 16.0667 30.2217V29.6667ZM31.9334 29.6667V30.2217C32.203 30.2217 32.4336 30.0279 32.4801 29.7624L31.9334 29.6667ZM16.2096 29.6667V30.2217H31.7929V29.6667V29.1117H16.2096V29.6667ZM31.7929 33.9167V33.3617H16.2096V33.9167V34.4717H31.7929V33.9167ZM33.9179 31.7917L33.3629 31.7917C33.3629 32.6588 32.66 33.3617 31.7929 33.3617L31.7929 33.9167L31.7929 34.4717C33.2731 34.4717 34.4729 33.2718 34.4729 31.7917L33.9179 31.7917ZM31.7929 29.6667L31.7929 30.2217C32.66 30.2217 33.3629 30.9246 33.3629 31.7917L33.9179 31.7917L34.4729 31.7917C34.4729 30.3116 33.2731 29.1117 31.7929 29.1117L31.7929 29.6667ZM14.0846 31.7917L14.6396 31.7917C14.6396 30.9246 15.3425 30.2217 16.2096 30.2217L16.2096 29.6667L16.2096 29.1117C14.7295 29.1117 13.5296 30.3116 13.5296 31.7917L14.0846 31.7917ZM14.0846 31.7917L13.5296 31.7917C13.5296 33.2718 14.7295 34.4717 16.2096 34.4717L16.2096 33.9167L16.2096 33.3617C15.3425 33.3617 14.6396 32.6588 14.6396 31.7917L14.0846 31.7917ZM24.0001 18.3334L23.5091 18.0746C22.4915 20.005 21.5209 21.0921 20.6536 21.635C19.813 22.1612 19.0456 22.1929 18.3331 21.95C17.5919 21.6972 16.8741 21.1327 16.2161 20.4026C15.5631 19.678 15.0018 18.827 14.5661 18.0594L14.0834 18.3334L13.6008 18.6074C14.0607 19.4177 14.6671 20.3418 15.3916 21.1457C16.1111 21.9442 16.9808 22.6616 17.9749 23.0006C18.9979 23.3494 20.1138 23.2824 21.2426 22.5759C22.3447 21.886 23.4293 20.6063 24.491 18.5922L24.0001 18.3334ZM14.0834 18.3334L13.5367 18.429L15.5201 29.7624L16.0667 29.6667L16.6134 29.571L14.6301 18.2377L14.0834 18.3334ZM24.0001 18.3334L23.5091 18.5922C24.5708 20.6063 25.6555 21.886 26.7576 22.5759C27.8863 23.2824 29.0022 23.3494 30.0252 23.0006C31.0194 22.6616 31.889 21.9442 32.6086 21.1457C33.3331 20.3418 33.9394 19.4177 34.3994 18.6074L33.9167 18.3334L33.4341 18.0594C32.9984 18.827 32.4371 19.678 31.784 20.4026C31.1261 21.1327 30.4083 21.6972 29.667 21.95C28.9546 22.1929 28.1871 22.1612 27.3465 21.635C26.4793 21.0921 25.5086 20.005 24.491 18.0746L24.0001 18.3334ZM33.9167 18.3334L33.3701 18.2377L31.3867 29.571L31.9334 29.6667L32.4801 29.7624L34.4634 18.429L33.9167 18.3334ZM26.1251 16.2084L25.5701 16.2084C25.5701 17.0755 24.8672 17.7784 24.0001 17.7784L24.0001 18.3334L24.0001 18.8884C25.4802 18.8884 26.6801 17.6885 26.6801 16.2084L26.1251 16.2084ZM24.0001 14.0834L24.0001 14.6384C24.8672 14.6384 25.5701 15.3413 25.5701 16.2084L26.1251 16.2084L26.6801 16.2084C26.6801 14.7283 25.4802 13.5284 24.0001 13.5284L24.0001 14.0834ZM21.8751 16.2084L22.4301 16.2084C22.4301 15.3413 23.133 14.6384 24.0001 14.6384L24.0001 14.0834L24.0001 13.5284C22.52 13.5284 21.3201 14.7283 21.3201 16.2084L21.8751 16.2084ZM21.8751 16.2084L21.3201 16.2084C21.3201 17.6885 22.52 18.8884 24.0001 18.8884L24.0001 18.3334L24.0001 17.7784C23.133 17.7784 22.4301 17.0755 22.4301 16.2084L21.8751 16.2084ZM35.3334 16.9167L34.7784 16.9167C34.7784 17.3926 34.3926 17.7784 33.9167 17.7784L33.9167 18.3334L33.9167 18.8884C35.0057 18.8884 35.8884 18.0056 35.8884 16.9167L35.3334 16.9167ZM33.9167 15.5L33.9167 16.055C34.3926 16.055 34.7784 16.4408 34.7784 16.9167L35.3334 16.9167L35.8884 16.9167C35.8884 15.8278 35.0057 14.945 33.9167 14.945L33.9167 15.5ZM32.5001 16.9167L33.0551 16.9167C33.0551 16.4408 33.4409 16.055 33.9167 16.055L33.9167 15.5L33.9167 14.945C32.8278 14.945 31.9451 15.8278 31.9451 16.9167L32.5001 16.9167ZM32.5001 16.9167L31.9451 16.9167C31.9451 18.0056 32.8278 18.8884 33.9167 18.8884L33.9167 18.3334L33.9167 17.7784C33.4409 17.7784 33.0551 17.3926 33.0551 16.9167L32.5001 16.9167ZM15.5001 16.9167L14.9451 16.9167C14.9451 17.3926 14.5593 17.7784 14.0834 17.7784L14.0834 18.3334L14.0834 18.8884C15.1723 18.8884 16.0551 18.0056 16.0551 16.9167L15.5001 16.9167ZM14.0834 15.5L14.0834 16.055C14.5593 16.055 14.9451 16.4408 14.9451 16.9167L15.5001 16.9167L16.0551 16.9167C16.0551 15.8278 15.1723 14.945 14.0834 14.945L14.0834 15.5ZM12.6667 16.9167L13.2217 16.9167C13.2217 16.4408 13.6075 16.055 14.0834 16.055L14.0834 15.5L14.0834 14.945C12.9945 14.945 12.1117 15.8278 12.1117 16.9167L12.6667 16.9167ZM12.6667 16.9167L12.1117 16.9167C12.1117 18.0056 12.9945 18.8884 14.0834 18.8884L14.0834 18.3334L14.0834 17.7784C13.6075 17.7784 13.2217 17.3926 13.2217 16.9167L12.6667 16.9167ZM16.0667 29.6667V30.2217H31.9334V29.6667V29.1117H16.0667V29.6667Z" fill="white"/>
</svg>
