<svg width="21" height="21" viewBox="0 0 21 21" fill="none" xmlns="http://www.w3.org/2000/svg">
<path d="M15.3132 16.625V17.18V16.625ZM15.3132 14V14.555V14ZM5.68823 14V13.445V14ZM5.68823 16.625V16.07V16.625ZM5.6 14L5.05331 14.0957C5.09978 14.3612 5.33039 14.555 5.6 14.555V14ZM15.4 14V14.555C15.6696 14.555 15.9002 14.3612 15.9467 14.0957L15.4 14ZM5.68823 14V14.555H15.3132V14V13.445H5.68823V14ZM15.3132 16.625V16.07H5.68823V16.625V17.18H15.3132V16.625ZM16.6257 15.3125H16.0707C16.0707 15.7309 15.7316 16.07 15.3132 16.07V16.625V17.18C16.3446 17.18 17.1807 16.3439 17.1807 15.3125H16.6257ZM15.3132 14V14.555C15.7316 14.555 16.0707 14.8941 16.0707 15.3125H16.6257H17.1807C17.1807 14.2811 16.3446 13.445 15.3132 13.445V14ZM4.37573 15.3125H4.93073C4.93073 14.8941 5.26988 14.555 5.68823 14.555V14V13.445C4.65684 13.445 3.82073 14.2811 3.82073 15.3125H4.37573ZM4.37573 15.3125H3.82073C3.82073 16.3439 4.65684 17.18 5.68823 17.18V16.625V16.07C5.26988 16.07 4.93073 15.7309 4.93073 15.3125H4.37573ZM10.5 7L10.009 6.7412C9.38895 7.91755 8.81125 8.55217 8.32049 8.85936C7.85637 9.14988 7.44899 9.16271 7.06831 9.03292C6.65883 8.89331 6.24452 8.57388 5.84989 8.136C5.46019 7.70357 5.12216 7.19197 4.85766 6.72602L4.375 7L3.89234 7.27398C4.18107 7.78262 4.56421 8.36742 5.02533 8.8791C5.48154 9.38532 6.04773 9.8577 6.71012 10.0835C7.40131 10.3192 8.15719 10.2711 8.90943 9.80024C9.63502 9.34605 10.3268 8.51883 10.991 7.2588L10.5 7ZM4.375 7L3.82831 7.09567L5.05331 14.0957L5.6 14L6.14669 13.9043L4.92169 6.90433L4.375 7ZM10.5 7L10.009 7.2588C10.6732 8.51883 11.365 9.34605 12.0906 9.80024C12.8428 10.2711 13.5987 10.3192 14.2899 10.0835C14.9523 9.8577 15.5185 9.38532 15.9747 8.8791C16.4358 8.36742 16.8189 7.78262 17.1077 7.27398L16.625 7L16.1423 6.72602C15.8778 7.19197 15.5398 7.70357 15.1501 8.136C14.7555 8.57388 14.3412 8.89331 13.9317 9.03292C13.551 9.16271 13.1436 9.14988 12.6795 8.85936C12.1887 8.55217 11.611 7.91755 10.991 6.7412L10.5 7ZM16.625 7L16.0783 6.90433L14.8533 13.9043L15.4 14L15.9467 14.0957L17.1717 7.09567L16.625 7ZM11.8125 5.6875L11.2575 5.6875C11.2575 6.10586 10.9184 6.445 10.5 6.445V7V7.555C11.5314 7.555 12.3675 6.71889 12.3675 5.6875H11.8125ZM10.5 4.375V4.93C10.9184 4.93 11.2575 5.26914 11.2575 5.6875L11.8125 5.6875H12.3675C12.3675 4.65611 11.5314 3.82 10.5 3.82V4.375ZM9.1875 5.6875H9.7425C9.7425 5.26914 10.0816 4.93 10.5 4.93V4.375V3.82C9.46861 3.82 8.6325 4.65611 8.6325 5.6875H9.1875ZM9.1875 5.6875H8.6325C8.6325 6.71889 9.46861 7.555 10.5 7.555V7V6.445C10.0816 6.445 9.7425 6.10586 9.7425 5.6875H9.1875ZM17.5 6.125H16.945C16.945 6.30173 16.8017 6.445 16.625 6.445V7V7.555C17.4148 7.555 18.055 6.91477 18.055 6.125H17.5ZM16.625 5.25V5.805C16.8017 5.805 16.945 5.94827 16.945 6.125H17.5H18.055C18.055 5.33523 17.4148 4.695 16.625 4.695V5.25ZM15.75 6.125H16.305C16.305 5.94827 16.4483 5.805 16.625 5.805V5.25V4.695C15.8352 4.695 15.195 5.33523 15.195 6.125H15.75ZM15.75 6.125H15.195C15.195 6.91477 15.8352 7.555 16.625 7.555V7V6.445C16.4483 6.445 16.305 6.30173 16.305 6.125H15.75ZM5.25 6.125H4.695C4.695 6.30173 4.55173 6.445 4.375 6.445L4.375 7V7.555C5.16477 7.555 5.805 6.91477 5.805 6.125H5.25ZM4.375 5.25V5.805C4.55173 5.805 4.695 5.94827 4.695 6.125H5.25H5.805C5.805 5.33523 5.16477 4.695 4.375 4.695L4.375 5.25ZM3.5 6.125H4.055C4.055 5.94827 4.19827 5.805 4.375 5.805V5.25L4.375 4.695C3.58523 4.695 2.945 5.33523 2.945 6.125H3.5ZM3.5 6.125H2.945C2.945 6.91477 3.58523 7.555 4.375 7.555V7L4.375 6.445C4.19827 6.445 4.055 6.30173 4.055 6.125H3.5ZM5.6 14V14.555H15.4V14V13.445H5.6V14Z" fill="white"/>
</svg>
